<svg xmlns="http://www.w3.org/2000/svg" width="1024" height="1024" viewBox="0 0 1024 1024" version="1.1"><path d="M 592.785 366.409 C 588.778 370.985, 580.775 380.298, 575 387.105 C 565.677 398.094, 545.686 420.314, 540.069 425.931 C 536.240 429.760, 537.296 430.097, 552.536 429.914 C 560.531 429.817, 567.328 429.994, 567.640 430.307 C 568.558 431.225, 566.462 443.852, 561.060 469.938 C 558.277 483.379, 556 495.699, 556 497.316 C 556 498.932, 559.438 507.960, 563.641 517.377 C 567.843 526.795, 573.487 539.450, 576.182 545.500 C 584.091 563.252, 589.225 569.351, 597.374 570.673 C 599.368 570.997, 601 571.017, 601 570.719 C 601 569.338, 610.430 523.537, 618.032 488 C 620.326 477.275, 622.613 466.250, 623.115 463.500 C 623.617 460.750, 625.268 452.200, 626.783 444.500 L 629.538 430.500 644.269 430.223 C 653.924 430.042, 659 429.577, 659 428.873 C 659 428.283, 655.482 423.682, 651.182 418.650 C 641.205 406.972, 611.711 371.110, 606.488 364.305 C 604.294 361.447, 601.953 358.880, 601.285 358.599 C 600.616 358.319, 596.791 361.833, 592.785 366.409 M 316.624 399.799 C 316.274 400.366, 320.910 415.831, 326.926 434.165 C 338.911 470.687, 350.014 505.290, 360.884 540 C 376.762 590.697, 379.351 598.997, 382.724 610 C 388.799 629.816, 393.132 635.753, 406 641.895 C 419.230 648.209, 432.476 647.204, 444.840 638.948 C 448.067 636.793, 451.907 633.299, 453.374 631.182 C 455.506 628.105, 485.776 553.934, 488.444 545.250 C 488.824 544.013, 489.442 543.011, 489.817 543.024 C 490.193 543.036, 492.160 546.974, 494.188 551.774 C 504.448 576.047, 518.167 607.065, 520.605 611.500 C 526.544 622.302, 542.812 635.627, 556.992 641.305 C 572.991 647.712, 583.030 648.993, 617.239 648.997 C 646.287 649, 648.607 648.565, 658.084 641.338 C 665.993 635.307, 667.986 631.637, 678.088 604.500 C 679.726 600.100, 681.695 595.168, 682.463 593.540 C 683.231 591.913, 683.639 590.225, 683.371 589.790 C 683.102 589.356, 663.640 589, 640.122 589 C 592.289 589, 591.877 588.952, 581.271 582.097 C 569.705 574.621, 572.093 579.377, 531.010 482 C 510.684 433.822, 512.330 437.265, 507.240 432.308 C 497.381 422.706, 487.277 420.394, 462 421.952 C 442.369 423.163, 438 423.821, 438 425.571 C 438 426.291, 442.274 436.334, 447.497 447.889 L 456.994 468.899 454.383 476.199 C 452.948 480.215, 447.382 494.975, 442.014 509 C 436.647 523.025, 431.254 537.560, 430.030 541.301 C 427.796 548.122, 425.791 549.622, 425.190 544.922 C 424.834 542.136, 410.179 492.196, 402.764 468.500 C 389.128 424.924, 386.903 418.379, 384.304 414.194 C 381.144 409.107, 372.531 402.707, 366.500 400.965 C 361.179 399.427, 317.485 398.407, 316.624 399.799" stroke="none" fill="#b529c6" fill-rule="evenodd"/></svg>